<svg xmlns="http://www.w3.org/2000/svg" width="26.552" height="29.88" viewBox="0 0 26.552 29.88">
  <path id="filter-svgrepo-com" d="M12.3,6.321a1.66,1.66,0,1,0,1.66,1.66A1.66,1.66,0,0,0,12.3,6.321Zm-4.7,0a4.98,4.98,0,0,1,9.393,0h11.9a1.66,1.66,0,0,1,0,3.319h-11.9a4.98,4.98,0,0,1-9.393,0H5.66a1.66,1.66,0,1,1,0-3.319Zm14.654,9.957a1.66,1.66,0,1,0,1.66,1.66A1.66,1.66,0,0,0,22.255,16.278Zm-4.7,0a4.98,4.98,0,0,1,9.393,0h1.942a1.66,1.66,0,1,1,0,3.319H26.951a4.98,4.98,0,0,1-9.393,0H5.66a1.66,1.66,0,1,1,0-3.319ZM12.3,26.235a1.66,1.66,0,1,0,1.66,1.66A1.66,1.66,0,0,0,12.3,26.235Zm-4.7,0a4.98,4.98,0,0,1,9.393,0h11.9a1.66,1.66,0,0,1,0,3.319h-11.9a4.98,4.98,0,0,1-9.393,0H5.66a1.66,1.66,0,1,1,0-3.319Z" transform="translate(-4 -2.998)" fill="#fff"/>
</svg>
