<svg id="Group_95" data-name="Group 95" xmlns="http://www.w3.org/2000/svg" width="22.245" height="27.682" viewBox="0 0 22.245 27.682">
  <path id="loop2" d="M26.23,1.335A9.985,9.985,0,0,0,21.319,7.38a9.411,9.411,0,0,0,1.053,7.554,10.708,10.708,0,0,0,9.137,4.979,11.072,11.072,0,0,0,3.481-.563l4.742,7.756,3.381-1.843-4.741-7.755a9.828,9.828,0,0,0,3.312-4.974A9.411,9.411,0,0,0,40.63,4.979,10.708,10.708,0,0,0,31.493,0,11.022,11.022,0,0,0,26.23,1.335ZM37.249,6.822a5.925,5.925,0,0,1,.663,4.756,6.287,6.287,0,0,1-3.092,3.806,6.935,6.935,0,0,1-3.311.841,6.745,6.745,0,0,1-5.756-3.135,5.925,5.925,0,0,1-.663-4.756,6.288,6.288,0,0,1,3.092-3.806,6.935,6.935,0,0,1,3.311-.841A6.745,6.745,0,0,1,37.249,6.822Z" transform="translate(-20.955)" fill="#698599"/>
  <circle id="Ellipse_5" data-name="Ellipse 5" cx="1.896" cy="1.896" r="1.896" transform="translate(18.452 23.89)" fill="#698599"/>
</svg>
