<svg xmlns="http://www.w3.org/2000/svg" xmlns:xlink="http://www.w3.org/1999/xlink" width="59.293" height="52.509" viewBox="0 0 59.293 52.509">
  <defs>
    <filter id="dino" x="0" y="0" width="59.293" height="52.509" filterUnits="userSpaceOnUse">
      <feOffset dy="2" input="SourceAlpha"/>
      <feGaussianBlur stdDeviation="3" result="blur"/>
      <feFlood flood-opacity="0.161"/>
      <feComposite operator="in" in2="blur"/>
      <feComposite in="SourceGraphic"/>
    </filter>
  </defs>
  <g transform="matrix(1, 0, 0, 1, 0, 0)" filter="url(#dino)">
    <path id="dino-2" data-name="dino" d="M80.1,261.648a18.927,18.927,0,0,1,4.549-1.168c.651-.071,3.529.788,4.642.48s2.768-2.552,3.3-4.394,2.143-7.031,3.13-8.349a7.842,7.842,0,0,1,3.995-2.515c.928-.148,3.415,1.635,2.994,3.772s-3.456,1-4.166,2.464-1.753,9.757-3.494,11.794-3.42,4.485-3.621,5.432a10.415,10.415,0,0,0-.1,3.646c.229.939.849,4.732.143,5.528a2.193,2.193,0,0,1-3.013-.048c-.562-.8-.007-4.4-1.482-4.9s-5.53-.166-6.267.424-1.722,2.938-2.228,3.952-2.669.9-3.9.679.379-3.862-.232-5.627-11.048,1.193-11.325,1a.561.561,0,0,1-.16-.8c.184-.245,9.42-2.348,10.465-5.441s4.916-5.166,6.777-5.932Z" transform="translate(-53.11 -238.05)" fill="#668094" stroke="#668094" stroke-width="1.284"/>
  </g>
</svg>
