<svg xmlns="http://www.w3.org/2000/svg" xmlns:xlink="http://www.w3.org/1999/xlink" width="57.403" height="50.995" viewBox="0 0 57.403 50.995">
  <defs>
    <filter id="Path_16" x="9.846" y="17.725" width="37.949" height="33.269" filterUnits="userSpaceOnUse">
      <feOffset dy="2" input="SourceAlpha"/>
      <feGaussianBlur stdDeviation="3" result="blur"/>
      <feFlood flood-opacity="0.161"/>
      <feComposite operator="in" in2="blur"/>
      <feComposite in="SourceGraphic"/>
    </filter>
    <filter id="Path_17" x="0" y="11.816" width="33.02" height="33.269" filterUnits="userSpaceOnUse">
      <feOffset dy="2" input="SourceAlpha"/>
      <feGaussianBlur stdDeviation="3" result="blur-2"/>
      <feFlood flood-opacity="0.161"/>
      <feComposite operator="in" in2="blur-2"/>
      <feComposite in="SourceGraphic"/>
    </filter>
    <filter id="Path_18" x="24.869" y="11.82" width="32.533" height="33.02" filterUnits="userSpaceOnUse">
      <feOffset dy="2" input="SourceAlpha"/>
      <feGaussianBlur stdDeviation="3" result="blur-3"/>
      <feFlood flood-opacity="0.161"/>
      <feComposite operator="in" in2="blur-3"/>
      <feComposite in="SourceGraphic"/>
    </filter>
    <filter id="Path_19" x="14.035" y="5.906" width="29.59" height="29.574" filterUnits="userSpaceOnUse">
      <feOffset dy="2" input="SourceAlpha"/>
      <feGaussianBlur stdDeviation="3" result="blur-4"/>
      <feFlood flood-opacity="0.161"/>
      <feComposite operator="in" in2="blur-4"/>
      <feComposite in="SourceGraphic"/>
    </filter>
    <filter id="Path_20" x="23.643" y="0" width="29.59" height="29.574" filterUnits="userSpaceOnUse">
      <feOffset dy="2" input="SourceAlpha"/>
      <feGaussianBlur stdDeviation="3" result="blur-5"/>
      <feFlood flood-opacity="0.161"/>
      <feComposite operator="in" in2="blur-5"/>
      <feComposite in="SourceGraphic"/>
    </filter>
    <filter id="Path_21" x="3.94" y="0.241" width="29.574" height="29.329" filterUnits="userSpaceOnUse">
      <feOffset dy="2" input="SourceAlpha"/>
      <feGaussianBlur stdDeviation="3" result="blur-6"/>
      <feFlood flood-opacity="0.161"/>
      <feComposite operator="in" in2="blur-6"/>
      <feComposite in="SourceGraphic"/>
    </filter>
  </defs>
  <g id="team" transform="translate(9 7)">
    <g transform="matrix(1, 0, 0, 1, -9, -7)" filter="url(#Path_16)">
      <path id="Path_16-2" data-name="Path 16" d="M274.849,538.235a7.577,7.577,0,0,0-1.479-4.68,7.809,7.809,0,0,0-6.155-2.955H262.78a8.115,8.115,0,0,0-4.68,1.479A6.975,6.975,0,0,0,255.145,537c-.245,2.215,0,4.68-.245,7.14.245,0,.74.245.985.245a35.1,35.1,0,0,0,8.619,1.479,40.107,40.107,0,0,0,5.419-.245,29.951,29.951,0,0,0,4.434-1.23c.245,0,.245-.245.245-.495A45.715,45.715,0,0,0,274.849,538.235Z" transform="translate(-236.05 -505.87)" fill="#698599"/>
    </g>
    <g transform="matrix(1, 0, 0, 1, -9, -7)" filter="url(#Path_17)">
      <path id="Path_17-2" data-name="Path 17" d="M23.79,389.019c.49-.245.74-.245,1.23-.495A6.557,6.557,0,0,1,22.8,383.6h-5.17a8.772,8.772,0,0,0-2.71.494A7.441,7.441,0,0,0,10,390.744V396.9c0,.245,0,.245.245.494a49.811,49.811,0,0,0,5.91,1.23c.74,0,1.725.245,2.464.245v-1.48a6.826,6.826,0,0,1,.245-2.215A9,9,0,0,1,23.79,389.019Z" transform="translate(-1 -364.78)" fill="#698599"/>
    </g>
    <g transform="matrix(1, 0, 0, 1, -9, -7)" filter="url(#Path_18)">
      <path id="Path_18-2" data-name="Path 18" d="M643.129,391.331a7.55,7.55,0,0,0-.74-3.2,7.193,7.193,0,0,0-6.895-4.43h-4.68a6.2,6.2,0,0,1-2.215,4.925.873.873,0,0,1,.495.245,10.376,10.376,0,0,1,3.449,2.215,8.816,8.816,0,0,1,2.215,5.91v1.725c1.23-.245,2.215-.245,3.45-.494a17.11,17.11,0,0,0,4.68-1.479c.245,0,.245-.245.245-.495C643.129,395.025,643.129,393.055,643.129,391.331Z" transform="translate(-594.73 -364.88)" fill="#698599"/>
    </g>
    <g transform="matrix(1, 0, 0, 1, -9, -7)" filter="url(#Path_19)">
      <path id="Path_19-2" data-name="Path 19" d="M365.01,248.174a5.632,5.632,0,0,0,5.665-5.91,5.789,5.789,0,0,0-11.574,0A6.168,6.168,0,0,0,365.01,248.174Z" transform="translate(-336.07 -223.69)" fill="#698599"/>
    </g>
    <g transform="matrix(1, 0, 0, 1, -9, -7)" filter="url(#Path_20)">
      <path id="Path_20-2" data-name="Path 20" d="M601.545,100.78a7.325,7.325,0,0,0,2.464.494,5.632,5.632,0,0,0,5.665-5.91,5.788,5.788,0,0,0-11.574,0A6.531,6.531,0,0,1,601.545,100.78Z" transform="translate(-565.46 -82.7)" fill="#698599"/>
    </g>
    <g transform="matrix(1, 0, 0, 1, -9, -7)" filter="url(#Path_21)">
      <path id="Path_21-2" data-name="Path 21" d="M113.91,107.029a5.832,5.832,0,0,0,2.955-.74,6.528,6.528,0,0,1,2.71-4.68v-.245a5.789,5.789,0,0,0-11.574,0A5.951,5.951,0,0,0,113.91,107.029Z" transform="translate(-95.06 -88.46)" fill="#698599"/>
    </g>
  </g>
</svg>
