<svg xmlns="http://www.w3.org/2000/svg" width="18" height="18" viewBox="0 0 18 18">
  <g id="Group_132" data-name="Group 132" transform="translate(1 1)">
    <g id="Group_157" data-name="Group 157" transform="translate(-1 -1)">
      <g id="Ellipse_9" data-name="Ellipse 9" fill="#f6e45f" stroke="#3e2c19" stroke-width="1">
        <circle cx="9" cy="9" r="9" stroke="none"/>
        <circle cx="9" cy="9" r="8.5" fill="none"/>
      </g>
      <g id="Path_31" data-name="Path 31" transform="translate(-1445.917 -7271.685)" fill="#3e2c19" stroke-linecap="square">
        <path d="M 1455.168579101562 7284.185546875 L 1455.824951171875 7281.681640625 L 1455.956298828125 7281.18017578125 L 1455.43798828125 7281.18017578125 L 1452.62939453125 7281.18017578125 L 1455.435180664062 7276.9375 L 1454.35888671875 7279.66796875 L 1454.143432617188 7280.21435546875 L 1454.731079101562 7280.21435546875 L 1457.266845703125 7280.21435546875 L 1455.168579101562 7284.185546875 Z" stroke="none"/>
        <path d="M 1456.434448242188 7280.93359375 L 1456.60302734375 7280.6142578125 L 1453.555908203125 7280.6142578125 L 1453.663330078125 7280.341796875 L 1453.37353515625 7280.7802734375 L 1456.474731445312 7280.7802734375 L 1456.434448242188 7280.93359375 M 1453.902587890625 7287.43798828125 L 1455.43798828125 7281.580078125 L 1451.885375976562 7281.580078125 L 1457.20703125 7273.53271484375 L 1454.731079101562 7279.814453125 L 1457.930541992188 7279.814453125 L 1453.902587890625 7287.43798828125 Z" stroke="none" fill="#3e2c19"/>
      </g>
    </g>
  </g>
</svg>
