<svg xmlns="http://www.w3.org/2000/svg" width="18" height="18" viewBox="0 0 18 18">
  <g id="Group_244" data-name="Group 244" transform="translate(18 -1)">
    <g id="Group_140" data-name="Group 140" transform="translate(-18 1)">
      <g id="Ellipse_9" data-name="Ellipse 9" fill="#fe491b" stroke="#3e2c19" stroke-width="1">
        <circle cx="9" cy="9" r="9" stroke="none"/>
        <circle cx="9" cy="9" r="8.5" fill="none"/>
      </g>
    </g>
    <g id="fire" transform="translate(-13 3)">
      <path id="Path_36" data-name="Path 36" d="M116.975,13.548a.146.146,0,0,0,.191-.208,3.354,3.354,0,0,1-.193-3.324c1.108-2.477,1.782-3.76,1.782-3.76a8.918,8.918,0,0,0,1.331,2.828c.936,1.281,1.448,2.892.622,4.235a.146.146,0,0,0,.191.207,4.142,4.142,0,0,0,2.3-3.658,7.14,7.14,0,0,0-.381-2.657,5.2,5.2,0,0,0-1.352-2.38.146.146,0,0,0-.242.12c.1,1.541-.484,1.931-.814,1.05a5.391,5.391,0,0,1-.209-1.7A5.819,5.819,0,0,0,119.051.763,4.005,4.005,0,0,0,118.33.03a.146.146,0,0,0-.235.126,9.379,9.379,0,0,1-2.1,6.1c-1.907,2.657-1.168,4.7-.906,5.25A4.325,4.325,0,0,0,116.975,13.548Z" transform="translate(-114.73 0.001)" fill="#3e2c19"/>
    </g>
  </g>
</svg>
