<svg xmlns="http://www.w3.org/2000/svg" width="18" height="19" viewBox="0 0 18 19">
  <g id="Group_304" data-name="Group 304" transform="translate(-1020 -673)">
    <g id="Group_245" data-name="Group 245" transform="translate(1021 674)">
      <g id="Group_157" data-name="Group 157" transform="translate(-1 -1)">
        <g id="Path_55" data-name="Path 55" fill="none">
          <path d="M9,0A9,9,0,1,1,0,9,9,9,0,0,1,9,0Z" stroke="none"/>
          <path d="M 9 1 C 4.588789939880371 1 1 4.588789939880371 1 9 C 1 13.41121006011963 4.588789939880371 17 9 17 C 13.41121006011963 17 17 13.41121006011963 17 9 C 17 4.588789939880371 13.41121006011963 1 9 1 M 9 0 C 13.97056007385254 0 18 4.029439926147461 18 9 C 18 13.97056007385254 13.97056007385254 18 9 18 C 4.029439926147461 18 0 13.97056007385254 0 9 C 0 4.029439926147461 4.029439926147461 0 9 0 Z" stroke="none" fill="#3e2c19"/>
        </g>
      </g>
    </g>
    <text id="_" data-name="?" transform="translate(1026 687)" fill="#3e2c19" font-size="13" font-family="Poppins-Medium, Poppins" font-weight="500"><tspan x="0" y="0">?</tspan></text>
  </g>
</svg>
