<svg xmlns="http://www.w3.org/2000/svg" width="18" height="18" viewBox="0 0 18 18">
  <g id="Group_259" data-name="Group 259" transform="translate(-148 -502)">
    <g id="Ellipse_7" data-name="Ellipse 7" transform="translate(148 502)" fill="#6dc2ec" stroke="#3e2c19" stroke-width="1">
      <circle cx="9" cy="9" r="9" stroke="none"/>
      <circle cx="9" cy="9" r="8.5" fill="none"/>
    </g>
    <path id="iconmonstr-drop-2" d="M8.522,2.018c2.067,3.073,3.391,5.213,3.391,7.067a3.391,3.391,0,0,1-6.782,0c0-1.854,1.323-3.994,3.391-7.067ZM8.522,0C5.769,4.068,4,6.612,4,9.086a4.522,4.522,0,0,0,9.043,0C13.043,6.612,11.274,4.068,8.522,0Z" transform="translate(148.478 504.218)" fill="#3e2c19"/>
    <g id="Ellipse_8" data-name="Ellipse 8" transform="translate(158.2 513.9)" fill="#fff" stroke="#fff" stroke-width="1">
      <circle cx="0.5" cy="0.5" r="0.5" stroke="none"/>
      <circle cx="0.5" cy="0.5" fill="none"/>
    </g>
  </g>
</svg>
